<?xml version="1.0" encoding="UTF-8" standalone="no"?>
<!-- Created with Inkscape (http://www.inkscape.org/) -->

<svg
   width="250"
   height="150"
   viewBox="0 0 66.145833 39.6875"
   version="1.1"
   id="svg5"
   inkscape:version="1.2 (dc2aedaf03, 2022-05-15)"
   sodipodi:docname="makingmountains_logo.svg"
   xmlns:inkscape="http://www.inkscape.org/namespaces/inkscape"
   xmlns:sodipodi="http://sodipodi.sourceforge.net/DTD/sodipodi-0.dtd"
   xmlns="http://www.w3.org/2000/svg"
   xmlns:svg="http://www.w3.org/2000/svg">
  <sodipodi:namedview
     id="namedview7"
     pagecolor="#ffffff"
     bordercolor="#000000"
     borderopacity="0.25"
     inkscape:showpageshadow="2"
     inkscape:pageopacity="0.0"
     inkscape:pagecheckerboard="0"
     inkscape:deskcolor="#d1d1d1"
     inkscape:document-units="mm"
     showgrid="false"
     inkscape:zoom="2.1811661"
     inkscape:cx="99.946536"
     inkscape:cy="92.840245"
     inkscape:window-width="1440"
     inkscape:window-height="938"
     inkscape:window-x="-6"
     inkscape:window-y="-6"
     inkscape:window-maximized="1"
     inkscape:current-layer="layer1" />
  <defs
     id="defs2" />
  <g
     inkscape:label="Layer 1"
     inkscape:groupmode="layer"
     id="layer1">
    <g
       id="g7761"
       transform="matrix(1.217558,0,0,1.217558,-7.0185431,-2.1530032)">
      <path
         d="m 35.192296,13.734991 h 1.046547 v 4.186186 h -1.046547 v -0.442474 q -0.307807,0.292418 -0.619463,0.423236 -0.307808,0.126971 -0.669482,0.126971 -0.811843,0 -1.404373,-0.627159 -0.59253,-0.631006 -0.59253,-1.565972 0,-0.969595 0.573292,-1.589058 0.573292,-0.619463 1.39283,-0.619463 0.377065,0 0.707958,0.142361 0.330894,0.142361 0.611768,0.427083 z m -1.10426,0.861862 q -0.488645,0 -0.811843,0.346283 -0.323198,0.342437 -0.323198,0.8811 0,0.542511 0.327045,0.892643 0.330894,0.350131 0.811843,0.350131 0.496341,0 0.823386,-0.342436 0.327046,-0.346284 0.327046,-0.904185 0,-0.546359 -0.327046,-0.884948 -0.327045,-0.338588 -0.827233,-0.338588 z"
         style="font-weight:bold;font-size:7.87988px;font-family:'Century Gothic';-inkscape-font-specification:'Century Gothic, Bold';stroke:#00ff00;stroke-width:0;stroke-linecap:round"
         id="path7716" />
      <path
         d="m 37.308475,12.119 h 1.050394 v 3.343562 l 1.546735,-1.727571 h 1.315878 l -1.800676,2.008446 2.019989,2.17774 H 40.13646 L 38.358869,15.99353 v 1.927647 h -1.050394 z"
         style="font-weight:bold;font-size:7.87988px;font-family:'Century Gothic';-inkscape-font-specification:'Century Gothic, Bold';stroke:#00ff00;stroke-width:0;stroke-linecap:round"
         id="path7718" />
      <path
         d="m 42.283419,12.011267 q 0.277027,0 0.473254,0.200075 0.200075,0.200075 0.200075,0.484797 0,0.280875 -0.196227,0.48095 -0.196228,0.196228 -0.469407,0.196228 -0.280875,0 -0.48095,-0.200076 -0.196227,-0.203922 -0.196227,-0.492492 0,-0.277027 0.196227,-0.473255 0.196228,-0.196227 0.473255,-0.196227 z m -0.527121,1.723724 h 1.054242 v 4.186186 h -1.054242 z"
         style="font-weight:bold;font-size:7.87988px;font-family:'Century Gothic';-inkscape-font-specification:'Century Gothic, Bold';stroke:#00ff00;stroke-width:0;stroke-linecap:round"
         id="path7720" />
      <path
         d="m 43.760896,13.734991 h 1.046547 v 0.427083 q 0.357827,-0.300113 0.646396,-0.415541 0.292418,-0.119275 0.596378,-0.119275 0.623311,0 1.058089,0.434778 0.365522,0.36937 0.365522,1.092718 v 2.766423 h -1.038851 v -1.835304 q 0,-0.750282 -0.06926,-0.996528 -0.06541,-0.246246 -0.234703,-0.373217 -0.165447,-0.130818 -0.411693,-0.130818 -0.319351,0 -0.550207,0.215465 -0.227008,0.211618 -0.315503,0.588683 -0.04617,0.196227 -0.04617,0.850319 v 1.6814 h -1.046547 z"
         style="font-weight:bold;font-size:7.87988px;font-family:'Century Gothic';-inkscape-font-specification:'Century Gothic, Bold';stroke:#00ff00;stroke-width:0;stroke-linecap:round"
         id="path7722" />
      <path
         d="m 51.583063,13.734991 h 1.046546 v 3.585961 q 0,1.061937 -0.427083,1.562124 -0.573292,0.677178 -1.727571,0.677178 -0.615616,0 -1.035004,-0.153904 -0.419388,-0.153904 -0.707958,-0.454017 -0.28857,-0.296265 -0.427083,-0.723348 h 1.158126 q 0.153904,0.176989 0.396303,0.265484 0.242399,0.09234 0.573292,0.09234 0.423236,0 0.681025,-0.130818 0.257789,-0.130818 0.361674,-0.338589 0.107733,-0.20777 0.107733,-0.715653 -0.277027,0.277027 -0.580987,0.40015 -0.303961,0.119276 -0.68872,0.119276 -0.842624,0 -1.423612,-0.607921 -0.580987,-0.60792 -0.580987,-1.539039 0,-0.996527 0.615616,-1.6006 0.557901,-0.546359 1.331269,-0.546359 0.361674,0 0.681024,0.134666 0.323199,0.130818 0.646397,0.434778 z m -1.08887,0.873404 q -0.49634,0 -0.819539,0.334741 -0.323198,0.330894 -0.323198,0.834929 0,0.523273 0.330894,0.858014 0.330893,0.334741 0.831081,0.334741 0.488645,0 0.804148,-0.327046 0.31935,-0.327045 0.31935,-0.858014 0,-0.523273 -0.31935,-0.850319 -0.319351,-0.327046 -0.823386,-0.327046 z"
         style="font-weight:bold;font-size:7.87988px;font-family:'Century Gothic';-inkscape-font-specification:'Century Gothic, Bold';stroke:#00ff00;stroke-width:0;stroke-linecap:round"
         id="path7724" />
    </g>
    <g
       id="g7771"
       transform="matrix(1.217558,0,0,1.217558,-8.9514164,-3.4415854)">
      <path
         d="m 31.860277,23.512218 q 0.59253,0 1.111955,0.296265 0.523274,0.296265 0.815691,0.804148 0.292418,0.507883 0.292418,1.096566 0,0.59253 -0.296265,1.108108 -0.292418,0.515578 -0.800301,0.807995 -0.507883,0.28857 -1.119651,0.28857 -0.900338,0 -1.539039,-0.638701 -0.634853,-0.642549 -0.634853,-1.558277 0,-0.981138 0.7195,-1.635229 0.631006,-0.569445 1.450545,-0.569445 z m 0.01539,0.988833 q -0.488645,0 -0.815691,0.342436 -0.323198,0.338589 -0.323198,0.869557 0,0.546359 0.319351,0.884948 0.323198,0.338588 0.815691,0.338588 0.492492,0 0.819538,-0.342436 0.327046,-0.342436 0.327046,-0.8811 0,-0.538664 -0.323199,-0.873405 -0.31935,-0.338588 -0.819538,-0.338588 z"
         style="font-weight:bold;font-size:7.87988px;font-family:'Century Gothic';-inkscape-font-specification:'Century Gothic, Bold';stroke:#00ff00;stroke-width:0;stroke-linecap:round"
         id="path7726" />
      <path
         d="m 34.934507,23.619951 h 1.061937 v 2.016141 q 0,0.588683 0.0808,0.819538 0.0808,0.227009 0.257789,0.353979 0.180837,0.126971 0.442473,0.126971 0.261637,0 0.442474,-0.123123 0.184685,-0.126971 0.27318,-0.369369 0.06541,-0.180837 0.06541,-0.773367 v -2.05077 h 1.054242 v 1.773743 q 0,1.096565 -0.173142,1.500563 -0.211618,0.492492 -0.623311,0.757976 -0.411693,0.261637 -1.046547,0.261637 -0.68872,0 -1.115803,-0.307808 -0.423236,-0.307808 -0.596378,-0.858014 -0.123123,-0.380912 -0.123123,-1.385135 z"
         style="font-weight:bold;font-size:7.87988px;font-family:'Century Gothic';-inkscape-font-specification:'Century Gothic, Bold';stroke:#00ff00;stroke-width:0;stroke-linecap:round"
         id="path7728" />
      <path
         d="m 39.667052,23.619951 h 1.046547 v 0.427083 q 0.357826,-0.300112 0.646396,-0.41554 0.292417,-0.119276 0.596378,-0.119276 0.62331,0 1.058089,0.434779 0.365522,0.369369 0.365522,1.092718 v 2.766422 h -1.038852 v -1.835304 q 0,-0.750281 -0.06926,-0.996528 -0.06541,-0.246246 -0.234704,-0.373217 -0.165446,-0.130818 -0.411693,-0.130818 -0.31935,0 -0.550206,0.215466 -0.227008,0.211617 -0.315503,0.588682 -0.04617,0.196227 -0.04617,0.850319 v 1.6814 h -1.046547 z"
         style="font-weight:bold;font-size:7.87988px;font-family:'Century Gothic';-inkscape-font-specification:'Century Gothic, Bold';stroke:#00ff00;stroke-width:0;stroke-linecap:round"
         id="path7730" />
      <path
         d="m 44.52272,22.077064 h 1.046546 v 1.542887 h 0.623311 v 0.904185 h -0.623311 v 3.282001 H 44.52272 v -3.282001 h -0.538664 v -0.904185 h 0.538664 z"
         style="font-weight:bold;font-size:7.87988px;font-family:'Century Gothic';-inkscape-font-specification:'Century Gothic, Bold';stroke:#00ff00;stroke-width:0;stroke-linecap:round"
         id="path7732" />
      <path
         d="m 49.851642,23.619951 h 1.046547 v 4.186186 h -1.046547 v -0.442474 q -0.307808,0.292418 -0.619463,0.423236 -0.307808,0.126971 -0.669482,0.126971 -0.811843,0 -1.404373,-0.627158 -0.59253,-0.631006 -0.59253,-1.565973 0,-0.969594 0.573292,-1.589058 0.573292,-0.619463 1.39283,-0.619463 0.377065,0 0.707958,0.142361 0.330894,0.142361 0.611768,0.427084 z m -1.10426,0.861862 q -0.488645,0 -0.811843,0.346284 -0.323199,0.342436 -0.323199,0.8811 0,0.542511 0.327046,0.892642 0.330894,0.350132 0.811843,0.350132 0.49634,0 0.823386,-0.342437 0.327046,-0.346283 0.327046,-0.904185 0,-0.546359 -0.327046,-0.884948 -0.327046,-0.338588 -0.827233,-0.338588 z"
         style="font-weight:bold;font-size:7.87988px;font-family:'Century Gothic';-inkscape-font-specification:'Century Gothic, Bold';stroke:#00ff00;stroke-width:0;stroke-linecap:round"
         id="path7734" />
      <path
         d="m 52.371819,21.896227 q 0.277027,0 0.473254,0.200075 0.200075,0.200075 0.200075,0.484798 0,0.280874 -0.196227,0.480949 -0.196228,0.196228 -0.469407,0.196228 -0.280875,0 -0.48095,-0.200075 -0.196227,-0.203923 -0.196227,-0.492493 0,-0.277027 0.196227,-0.473254 0.196228,-0.196228 0.473255,-0.196228 z m -0.527121,1.723724 h 1.054242 v 4.186186 h -1.054242 z"
         style="font-weight:bold;font-size:7.87988px;font-family:'Century Gothic';-inkscape-font-specification:'Century Gothic, Bold';stroke:#00ff00;stroke-width:0;stroke-linecap:round"
         id="path7736" />
      <path
         d="m 53.849297,23.619951 h 1.046547 v 0.427083 q 0.357826,-0.300112 0.646396,-0.41554 0.292418,-0.119276 0.596378,-0.119276 0.623311,0 1.058089,0.434779 0.365522,0.369369 0.365522,1.092718 v 2.766422 h -1.038851 v -1.835304 q 0,-0.750281 -0.06926,-0.996528 -0.06541,-0.246246 -0.234704,-0.373217 -0.165446,-0.130818 -0.411692,-0.130818 -0.319351,0 -0.550207,0.215466 -0.227008,0.211617 -0.315503,0.588682 -0.04617,0.196227 -0.04617,0.850319 v 1.6814 h -1.046547 z"
         style="font-weight:bold;font-size:7.87988px;font-family:'Century Gothic';-inkscape-font-specification:'Century Gothic, Bold';stroke:#00ff00;stroke-width:0;stroke-linecap:round"
         id="path7738" />
      <path
         d="M 61.140494,24.204786 60.49025,24.85503 q -0.396302,-0.392455 -0.719501,-0.392455 -0.176989,0 -0.277027,0.07695 -0.100037,0.0731 -0.100037,0.184685 0,0.08465 0.06156,0.157751 0.06541,0.06926 0.315503,0.19238 l 0.38476,0.19238 q 0.607921,0.300112 0.834929,0.611768 0.227008,0.311655 0.227008,0.731043 0,0.557902 -0.411693,0.931119 -0.407845,0.373217 -1.096565,0.373217 -0.915728,0 -1.462087,-0.715653 l 0.646396,-0.704111 q 0.184685,0.215466 0.430931,0.350132 0.250094,0.130818 0.442474,0.130818 0.20777,0 0.334741,-0.100037 0.126971,-0.100038 0.126971,-0.230856 0,-0.242399 -0.457865,-0.473255 L 59.41677,25.993919 q -1.015765,-0.511731 -1.015765,-1.28125 0,-0.49634 0.380912,-0.846472 0.38476,-0.353979 0.981137,-0.353979 0.407846,0 0.765672,0.180837 0.361674,0.17699 0.611768,0.511731 z"
         style="font-weight:bold;font-size:7.87988px;font-family:'Century Gothic';-inkscape-font-specification:'Century Gothic, Bold';stroke:#00ff00;stroke-width:0;stroke-linecap:round"
         id="path7740" />
    </g>
    <path
       style="fill:#000000;stroke:#00ff00;stroke-width:0;stroke-linecap:round"
       d="m 0.41260582,31.741578 c 0,0 8.04438218,-9.087268 10.32878918,-12.067888 1.142201,-1.490304 2.687936,-2.28568 3.799047,-0.101484 1.095291,2.153103 2.829532,5.531516 2.829532,5.531516 l 1.935435,-2.233271 c 1.686376,-2.013369 3.154248,1.112212 4.740639,3.510485 1.675813,2.533454 3.557802,4.419 3.557802,4.419 0,0 -4.474422,0.703661 -6.114896,-1.462981 -1.343388,-1.774271 -2.621651,-4.568699 -2.621651,-4.568699 0,0 -0.586712,0.834279 -2.570951,2.75482 -2.012677,1.948077 -2.435082,-0.661558 -3.378647,-2.535061 -1.090781,-2.165813 -1.899712,-3.807803 -1.899712,-3.807803 0,0 -5.6736847,6.587576 -8.293833,9.367419 -1.2135151,1.287476 -2.31155418,1.193941 -2.31155418,1.193941 z"
       id="path7445-4-7"
       sodipodi:nodetypes="cssccscscsscscc" />
    <path
       style="fill:#000000;stroke:#00ff00;stroke-width:0;stroke-linecap:round"
       d="m 0.74261274,26.068345 c 0,0 12.55442026,-13.597307 14.83882726,-16.5779267 1.142201,-1.4903036 2.687936,-2.2856791 3.799047,-0.1014834 1.095291,2.1531031 2.829532,5.5315161 2.829532,5.5315161 l 1.935435,-2.233272 c 1.686376,-2.013369 3.154249,1.112212 4.740639,3.510485 1.675813,2.533455 3.557802,4.419 3.557802,4.419 0,0 -4.474422,0.703661 -6.114895,-1.462981 -1.343389,-1.77427 -2.621652,-4.568699 -2.621652,-4.568699 0,0 -0.586712,0.834279 -2.570951,2.75482 -2.012677,1.948077 -2.435082,-0.661558 -3.378647,-2.53506 -1.090781,-2.165813 -1.899711,-3.807803 -1.899711,-3.807803 0,0 -10.1837238,11.097613 -12.8038717,13.877457 -1.2135157,1.287476 -2.31155456,1.193941 -2.31155456,1.193941 z"
       id="path7445-4-7-5"
       sodipodi:nodetypes="cssccscscsscscc" />
  </g>
</svg>
