<?xml version="1.0" encoding="UTF-8" standalone="no"?>
<!-- Created with Inkscape (http://www.inkscape.org/) -->

<svg
   width="48"
   height="48"
   viewBox="0 0 12.7 12.7"
   version="1.1"
   id="svg7861"
   inkscape:version="1.2 (dc2aedaf03, 2022-05-15)"
   sodipodi:docname="makingmountains_logo_square.svg"
   xmlns:inkscape="http://www.inkscape.org/namespaces/inkscape"
   xmlns:sodipodi="http://sodipodi.sourceforge.net/DTD/sodipodi-0.dtd"
   xmlns="http://www.w3.org/2000/svg"
   xmlns:svg="http://www.w3.org/2000/svg">
  <sodipodi:namedview
     id="namedview7863"
     pagecolor="#ffffff"
     bordercolor="#000000"
     borderopacity="0.25"
     inkscape:showpageshadow="2"
     inkscape:pageopacity="0.0"
     inkscape:pagecheckerboard="0"
     inkscape:deskcolor="#d1d1d1"
     inkscape:document-units="mm"
     showgrid="false"
     inkscape:zoom="13.455443"
     inkscape:cx="28.538636"
     inkscape:cy="25.008466"
     inkscape:window-width="1440"
     inkscape:window-height="938"
     inkscape:window-x="-6"
     inkscape:window-y="-6"
     inkscape:window-maximized="1"
     inkscape:current-layer="layer1" />
  <defs
     id="defs7858" />
  <g
     inkscape:label="Layer 1"
     inkscape:groupmode="layer"
     id="layer1">
    <g
       id="g8028"
       transform="matrix(0.38872503,0,0,0.38872503,3.6122742,3.7739597)">
      <path
         style="fill:#000000;stroke:#00ff00;stroke-width:0;stroke-linecap:round"
         d="m -9.0153798,18.888774 c 0,0 8.0443822,-9.087268 10.3287892,-12.067888 1.142201,-1.490304 2.687936,-2.28568 3.799047,-0.101484 1.095291,2.153103 2.829532,5.531516 2.829532,5.531516 l 1.935435,-2.233271 c 1.6863756,-2.013369 3.1542476,1.112212 4.7406386,3.510485 1.675813,2.533454 3.557802,4.419 3.557802,4.419 0,0 -4.474422,0.703661 -6.114896,-1.462981 -1.343388,-1.774271 -2.6216506,-4.568699 -2.6216506,-4.568699 0,0 -0.586712,0.834279 -2.570951,2.75482 -2.012677,1.948077 -2.435082,-0.661558 -3.378647,-2.535061 -1.090781,-2.165813 -1.899712,-3.807803 -1.899712,-3.807803 0,0 -5.6736847,6.587576 -8.293833,9.367419 -1.2135151,1.287476 -2.3115542,1.193941 -2.3115542,1.193941 z"
         id="path7445-4-7"
         sodipodi:nodetypes="cssccscscsscscc" />
      <path
         style="fill:#000000;stroke:#00ff00;stroke-width:0;stroke-linecap:round"
         d="m -8.6853729,13.215541 c 0,0 12.5544203,-13.597307 14.8388273,-16.5779267 1.142201,-1.4903036 2.687936,-2.2856791 3.799047,-0.1014834 1.0952906,2.1531031 2.8295316,5.5315161 2.8295316,5.5315161 l 1.935435,-2.233272 c 1.686376,-2.013369 3.154249,1.112212 4.740639,3.510485 1.675813,2.533455 3.557802,4.419 3.557802,4.419 0,0 -4.474422,0.703661 -6.114895,-1.462981 -1.343389,-1.77427 -2.621652,-4.568699 -2.621652,-4.568699 0,0 -0.586712,0.834279 -2.570951,2.75482 C 9.6957344,6.435077 9.2733294,3.825442 8.3297644,1.95194 c -1.090781,-2.165813 -1.899711,-3.807803 -1.899711,-3.807803 0,0 -10.1837238,11.097613 -12.8038717,13.877457 -1.2135157,1.287476 -2.3115546,1.193941 -2.3115546,1.193941 z"
         id="path7445-4-7-5"
         sodipodi:nodetypes="cssccscscsscscc" />
    </g>
  </g>
</svg>
